<svg xmlns="http://www.w3.org/2000/svg" xmlns:xlink="http://www.w3.org/1999/xlink" width="100" height="99" viewBox="0 0 100 99">
    <defs>
        <path id="a" d="M.053.313h50.956v50.543H.053z"/>
    </defs>
    <g fill="none" fill-rule="evenodd">
        <path fill="#F36" d="M86.086 27.065V21.64c0-.665-.479-1.232-1.13-1.337-1.149-.188-4.215-.484-7.837.796-3.865 1.366-7.209 4.054-9.963 8.004a19.417 19.417 0 0 1 .364-3.867c.816-4.165 2.891-7.663 6.164-10.397.029-.023.056-.049.083-.075.094-.088 3.506-3.196 10.965-3.14h.01a1.35 1.35 0 0 0 1.344-1.355V4.965L97.041 15.96 86.086 27.065zM83.88.465c-.483.198-.798 1.814-.798 2.33v6.828c-6.987.276-10.485 3.14-11.02 3.616a19.362 19.362 0 0 0-6.806 11.275 19.656 19.656 0 0 0-.231 6.498c.002.018.097.56.284 1.628a1.3 1.3 0 0 0 2.384.439l.823-1.358c2.531-4.162 5.685-6.921 9.375-8.2a13.714 13.714 0 0 1 5.191-.753v7.071c0 .518.316 2.135.8 2.332a1.305 1.305 0 0 0 1.411-.28l13.67-14.74c.502-1.059.502-2.208-.004-2.958L85.289.74a1.305 1.305 0 0 0-1.41-.274z"/>
        <g transform="translate(0 47.97)">
            <mask id="b" fill="#fff">
                <use xlink:href="#a"/>
            </mask>
            <path fill="#F36" d="M8.534 46.353L4.22 42.04l3.11-3.11 4.315 4.312-3.112 3.11zm27.428-36.054l5.827-1.512-1.513 5.825-26.159 26.159-4.313-4.314 26.158-26.158zM15.355 44.477l27.73-27.73c.22-.218.379-.494.455-.794l2.381-9.167a1.75 1.75 0 0 0-2.131-2.133l-9.167 2.38a1.748 1.748 0 0 0-.797.457L6.097 35.218l-.001.002-.002.001-5.582 5.583a1.748 1.748 0 0 0 0 2.473l6.785 6.785a1.747 1.747 0 0 0 2.473 0l5.582-5.582.001-.002h.002z" mask="url(#b)"/>
        </g>
        <path fill="#F36" d="M1.99 78.01a1.93 1.93 0 0 0 1.938-1.922V14.29h60.796v73.528h-35.87a1.931 1.931 0 0 0-1.938 1.923 1.93 1.93 0 0 0 1.939 1.924h37.807a1.93 1.93 0 0 0 1.939-1.924V12.368a1.93 1.93 0 0 0-1.939-1.924H1.99a1.93 1.93 0 0 0-1.937 1.924v63.72a1.93 1.93 0 0 0 1.937 1.921"/>
        <path fill="#F36" d="M54.214 23.733H15.226c-.828 0-1.5-.667-1.5-1.489 0-.821.672-1.488 1.5-1.488h38.988c.828 0 1.5.667 1.5 1.488 0 .822-.672 1.489-1.5 1.489M54.214 44.832H15.226c-.828 0-1.5-.666-1.5-1.488s.672-1.488 1.5-1.488h38.988c.828 0 1.5.666 1.5 1.488s-.672 1.488-1.5 1.488M54.214 34.282H15.226c-.828 0-1.5-.666-1.5-1.488 0-.821.672-1.488 1.5-1.488h38.988c.828 0 1.5.667 1.5 1.488 0 .822-.672 1.488-1.5 1.488"/>
    </g>
</svg>
